<?xml version="1.0" encoding="UTF-8" standalone="no"?>
<!-- Generated by graphviz version 2.40.1 (20161225.0304)
 -->

<!-- Title: %3 Pages: 1 -->

<svg
   viewBox="0.00 0.00 1000.00 700.00"
   version="1.1"
   id="svg102"
   sodipodi:docname="trpl04-01.svg"
   inkscape:version="1.1.2 (1:1.1+202202050950+0a00cf5339)"
   xmlns:inkscape="http://www.inkscape.org/namespaces/inkscape"
   xmlns:sodipodi="http://sodipodi.sourceforge.net/DTD/sodipodi-0.dtd"
   xmlns="http://www.w3.org/2000/svg"
   xmlns:svg="http://www.w3.org/2000/svg">
  <defs
     id="defs106" />
  <sodipodi:namedview
     id="namedview104"
     pagecolor="#ffffff"
     bordercolor="#666666"
     borderopacity="1.0"
     inkscape:pageshadow="2"
     inkscape:pageopacity="0.0"
     inkscape:pagecheckerboard="0"
     showgrid="false"
     inkscape:zoom="1.1571429"
     inkscape:cx="487.40741"
     inkscape:cy="350"
     inkscape:window-width="1920"
     inkscape:window-height="1048"
     inkscape:window-x="0"
     inkscape:window-y="0"
     inkscape:window-maximized="1"
     inkscape:current-layer="graph0" />
  <g
     id="graph0"
     class="graph"
     transform="matrix(4.1667,0,0,4.1667,16.6668,633.3384)">
    <title
       id="title2">%3</title>
    <polygon
       fill="#ffffff"
       stroke="transparent"
       points="-4,4 -4,-152 233,-152 233,4 "
       id="polygon4" />
    <!-- table0 -->
    <polyline
       fill="none"
       stroke="#000000"
       points="8,-124 96,-124 "
       id="polyline8" />
    <text
       text-anchor="start"
       x="45.775902"
       y="-129.8"
       font-family="Times, serif"
       font-size="14px"
       fill="#000000"
       id="text10">s1</text>
    <polygon
       fill="none"
       stroke="#000000"
       points="60,-124 60,-104 8,-104 8,-124 "
       id="polygon12" />
    <text
       text-anchor="start"
       x="18.841299"
       y="-109.8"
       font-family="Times, serif"
       font-size="14px"
       fill="#000000"
       id="text14">име</text>
    <polygon
       fill="none"
       stroke="#000000"
       points="96,-104 60,-104 60,-124 96,-124 "
       id="polygon16"
       transform="matrix(1.6455677,0,0,0.99649318,-38.593787,-0.29457285)" />
    <text
       text-anchor="start"
       x="62.852589"
       y="-109.8"
       font-family="Times, serif"
       font-size="14px"
       fill="#000000"
       id="text18">стойност</text>
    <polygon
       fill="none"
       stroke="#000000"
       points="60,-104 60,-84 8,-84 8,-104 "
       id="polygon20" />
    <text
       text-anchor="start"
       x="26.2241"
       y="-89.800003"
       font-family="Times, serif"
       font-size="14px"
       fill="#000000"
       id="text22">ptr</text>
    <polygon
       fill="none"
       stroke="#000000"
       points="96,-84 60,-84 60,-104 96,-104 "
       id="polygon24"
       transform="matrix(1.6455677,0,0,0.99649318,-38.593787,-0.29457285)" />
    <polygon
       fill="none"
       stroke="#000000"
       points="60,-84 60,-64 8,-64 8,-84 "
       id="polygon26" />
    <text
       text-anchor="start"
       x="25.4482"
       y="-69.800003"
       font-family="Times, serif"
       font-size="14px"
       fill="#000000"
       id="text28">len</text>
    <polygon
       fill="none"
       stroke="#000000"
       points="96,-64 60,-64 60,-84 96,-84 "
       id="polygon30"
       transform="matrix(1.6455677,0,0,0.99649318,-38.593787,-0.29457285)" />
    <text
       text-anchor="start"
       x="86.470497"
       y="-69.800003"
       font-family="Times, serif"
       font-size="14px"
       fill="#000000"
       id="text32">5</text>
    <polygon
       fill="none"
       stroke="#000000"
       points="60,-64 60,-44 8,-44 8,-64 "
       id="polygon34" />
    <text
       text-anchor="start"
       x="10.6826"
       y="-49.799999"
       font-family="Times, serif"
       font-size="14px"
       fill="#000000"
       id="text36">capacity</text>
    <polygon
       fill="none"
       stroke="#000000"
       points="96,-44 60,-44 60,-64 96,-64 "
       id="polygon38"
       transform="matrix(1.6455677,0,0,0.99649318,-38.593787,-0.29457285)" />
    <text
       text-anchor="start"
       x="86.470497"
       y="-49.799999"
       font-family="Times, serif"
       font-size="14px"
       fill="#000000"
       id="text40">5</text>
    <!-- table1 -->
    <g
       id="node2"
       class="node">
      <title
         id="title43">table1</title>
      <polygon
         fill="none"
         stroke="#000000"
         points="148.5,-124 185.5,-124 185.5,-104 148.5,-104 "
         id="polygon45" />
      <text
         text-anchor="start"
         x="151.4482"
         y="-109.8"
         font-family="Times, serif"
         font-size="14px"
         fill="#000000"
         id="text47">index</text>
      <polygon
         fill="none"
         stroke="#000000"
         points="185.5,-124 221.5,-124 221.5,-104 185.5,-104 "
         id="polygon49" />
      <text
         text-anchor="start"
         x="188.34129"
         y="-109.8"
         font-family="Times, serif"
         font-size="14px"
         fill="#000000"
         id="text51">value</text>
      <polygon
         fill="none"
         stroke="#000000"
         points="148.5,-104 185.5,-104 185.5,-84 148.5,-84 "
         id="polygon53" />
      <text
         text-anchor="start"
         x="163.5"
         y="-89.800003"
         font-family="Times, serif"
         font-size="14px"
         fill="#000000"
         id="text55">0</text>
      <polygon
         fill="none"
         stroke="#000000"
         points="185.5,-104 221.5,-104 221.5,-84 185.5,-84 "
         id="polygon57" />
      <text
         text-anchor="start"
         x="200"
         y="-89.800003"
         font-family="Times, serif"
         font-size="14px"
         fill="#000000"
         id="text59">h</text>
      <polygon
         fill="none"
         stroke="#000000"
         points="148.5,-84 185.5,-84 185.5,-64 148.5,-64 "
         id="polygon61" />
      <text
         text-anchor="start"
         x="163.5"
         y="-69.800003"
         font-family="Times, serif"
         font-size="14px"
         fill="#000000"
         id="text63">1</text>
      <polygon
         fill="none"
         stroke="#000000"
         points="185.5,-84 221.5,-84 221.5,-64 185.5,-64 "
         id="polygon65" />
      <text
         text-anchor="start"
         x="200.3931"
         y="-69.800003"
         font-family="Times, serif"
         font-size="14px"
         fill="#000000"
         id="text67">e</text>
      <polygon
         fill="none"
         stroke="#000000"
         points="148.5,-64 185.5,-64 185.5,-44 148.5,-44 "
         id="polygon69" />
      <text
         text-anchor="start"
         x="163.5"
         y="-49.799999"
         font-family="Times, serif"
         font-size="14px"
         fill="#000000"
         id="text71">2</text>
      <polygon
         fill="none"
         stroke="#000000"
         points="185.5,-64 221.5,-64 221.5,-44 185.5,-44 "
         id="polygon73" />
      <text
         text-anchor="start"
         x="201.55521"
         y="-49.799999"
         font-family="Times, serif"
         font-size="14px"
         fill="#000000"
         id="text75">l</text>
      <polygon
         fill="none"
         stroke="#000000"
         points="148.5,-44 185.5,-44 185.5,-24 148.5,-24 "
         id="polygon77" />
      <text
         text-anchor="start"
         x="163.5"
         y="-29.799999"
         font-family="Times, serif"
         font-size="14px"
         fill="#000000"
         id="text79">3</text>
      <polygon
         fill="none"
         stroke="#000000"
         points="185.5,-44 221.5,-44 221.5,-24 185.5,-24 "
         id="polygon81" />
      <text
         text-anchor="start"
         x="201.55521"
         y="-29.799999"
         font-family="Times, serif"
         font-size="14px"
         fill="#000000"
         id="text83">l</text>
      <polygon
         fill="none"
         stroke="#000000"
         points="148.5,-24 185.5,-24 185.5,-4 148.5,-4 "
         id="polygon85" />
      <text
         text-anchor="start"
         x="163.5"
         y="-9.8000002"
         font-family="Times, serif"
         font-size="14px"
         fill="#000000"
         id="text87">4</text>
      <polygon
         fill="none"
         stroke="#000000"
         points="185.5,-24 221.5,-24 221.5,-4 185.5,-4 "
         id="polygon89" />
      <text
         text-anchor="start"
         x="200"
         y="-9.8000002"
         font-family="Times, serif"
         font-size="14px"
         fill="#000000"
         id="text91">o</text>
    </g>
    <!-- table0&#45;&gt;table1 -->
    <g
       id="edge1"
       class="edge">
      <title
         id="title94">table0:c-&gt;table1:pointee</title>
      <path
         fill="none"
         stroke="#000000"
         d="m 78,-94 c 0,0 31.3406,0 60.3797,0"
         id="path96" />
      <polygon
         fill="#000000"
         stroke="#000000"
         points="138.5,-97.5001 148.5,-94 138.5,-90.5001 "
         id="polygon98" />
    </g>
  </g>
</svg>
